<svg xmlns="http://www.w3.org/2000/svg" style="overflow: visible;" viewBox="0 0 512 512"
  data-svgdocument="" id="_HkD5PQufsIAJQ1169sH5z" x="0" y="0" xmlns:xlink="http://www.w3.org/1999/xlink"
  overflow="hidden">
  <defs id="_YEchPHQkAR-zMzTHFN48S"
    transform="matrix(1.230769278785292, 0, 0, 1.230769278785292, -59.07692238894896, -62.70276587673474)"
    data-uid="o_emick5gh7_4">
    <linearGradient id="_hnKngv-HhthRIEnQaBaAO" x1="0" y1="0.5" x2="1" y2="0.5" data-uid="o_emick5gh7_5">
      <stop id="_QxMztB0r4RnvX9VLghcZv" offset="0%" stop-color="#8dcaff" stop-opacity="0.72" data-uid="o_emick5gh7_6">
      </stop>
      <stop id="_FOLLtPDY_q3gmL1NG-LNc" offset="100%" stop-color="#8dcaff" stop-opacity="0.72" data-uid="o_emick5gh7_7">
      </stop>
    </linearGradient>
  </defs>
  <path id="_5AbSgjZPbr6_sP6ARbiz2" fill="url(#_hnKngv-HhthRIEnQaBaAO)"
    d="M48.417,5.67c-6.721,0-13.088,1.505-18.795,4.184c0.004-0.022,0.014-0.041,0.016-0.064  c-0.576,0.268-1.146,0.548-1.711,0.841c0.029,0.009,0.063,0.012,0.094,0.019c-0.104,0.055-0.211,0.106-0.314,0.162  c-0.01-0.017-0.024-0.027-0.032-0.044c-0.327,0.172-0.653,0.343-0.974,0.523c0.032,0.006,0.061,0.015,0.092,0.021  c-0.342,0.191-0.682,0.385-1.018,0.585c-0.018-0.014-0.036-0.022-0.053-0.037c0.191-0.112,0.379-0.228,0.57-0.337  c-0.193,0.112-0.389,0.223-0.581,0.337c0.001,0.001,0.003,0.002,0.004,0.003c-0.08,0.048-0.161,0.096-0.241,0.144  c0.037-0.004,0.057,0.01,0.089,0.013c-0.173,0.104-0.341,0.214-0.512,0.32c0.012-0.035,0.019-0.066,0.032-0.102  c0,0-0.001,0-0.002,0.001c0-0.001,0.001-0.002,0.001-0.003c-0.031,0.02-0.063,0.041-0.097,0.061  c0.019-0.012,0.037-0.022,0.057-0.033c-0.068,0.043-0.138,0.086-0.207,0.129c0.021-0.014,0.041-0.027,0.062-0.04  c-0.194,0.12-0.39,0.241-0.582,0.365c0.128-0.082,0.258-0.161,0.387-0.24c-0.129,0.082-0.256,0.166-0.385,0.25  c0,0.024,0.005,0.053,0.006,0.078c-0.012,0.008-0.024,0.016-0.037,0.024c-0.012-0.019-0.02-0.041-0.035-0.058  c0.021-0.014,0.041-0.028,0.062-0.042c0.002-0.004,0-0.008,0-0.011c-0.023,0.015-0.047,0.031-0.071,0.047  c0.003,0.001,0.004,0.005,0.005,0.008c-1.219,0.79-2.399,1.634-3.532,2.538c0.009,0.026,0.024,0.05,0.034,0.074  C10.608,23.51,4.106,35.992,4.106,50c0,24.482,19.839,44.33,44.311,44.33c24.472,0,44.312-19.848,44.312-44.33  C92.729,25.517,72.889,5.67,48.417,5.67z M80.229,20.456c0.045,0.075,0.098,0.142,0.139,0.219c-1.158,0.338-1.061-0.576-2.047-0.408  c0.414,0.715,0.709,2.192,1.637,1.227c0.082,0.546,0.561,0.174,0.996-0.234c6.285,7.116,10.279,16.303,10.814,26.412  c-0.531,0-1.061,0-1.588,0c2.58,4.011-2.924,5.74-5.316,7.363c0.729,1.693,2.34-0.518,3.271,0.408  c-0.402,4.1-3.299,5.697-5.316,8.182c0.102,3.109,0.217,3.945,0,6.953c-4.158,2.84-4.428,11.6-11.043,10.633  c-1.096-2.994-1.139-7.043-2.455-9.816c2.725-3.924-1.109-6.549-0.818-11.451c-0.549-0.678-2.146-0.305-2.045-1.637  c-2.551,0.881-4.385,0.521-6.953,0.818c-1.842-1.021-2.58-3.146-4.09-4.498c1.379-3.963-0.869-8.164,3.682-9.817  c-0.219-4.865,7.52-5.636,10.633-4.498c0,0.545,0,1.09,0,1.635c1.605,0.306,2.367,1.453,3.682,2.045  c-0.068-1.024,0.631-1.281,1.229-1.637c1.248,0.793,0.939,1.918,2.863,1.229c0.719,0.234,2.402-0.495,2.453,0.409  c0.607-0.347,0.592-1.317,0.818-2.046c-0.375-1.396-2.518-1.027-3.684-1.635c-0.559-0.522-0.559-1.932,0-2.455  c-2.604-0.19-0.42,1.975-2.043,2.455c-0.273,0-0.545,0-0.818,0c0.352-1.306-0.643-1.265-0.818-2.045  c-1.217-0.101-1.553,2.771-2.861,1.227c2.91-0.479-1.648-4.118-2.045-2.454c-0.07-0.612,0.146-1.509-0.41-1.636  c-1.453,0.453-2.395,1.422-3.682,2.045c0,0.545,0,1.091,0,1.636c-0.361,0.183-0.73,0.36-0.816,0.817c-1.229,0-2.455,0-3.684,0  c-0.02-0.522-0.521-0.566-0.408-1.229c0.602-0.898-0.047-3.047,1.229-3.271c1.176-0.57,2.078,1.115,2.453,0c0.139,0,0.271,0,0.41,0  c0.182-1.543-0.809-1.92-1.229-2.862c0.045-0.772,1.354-0.284,1.229-1.228c3.486-0.193,3.588-3.774,5.727-5.316  c-0.344,0.475-0.541,1.096-0.408,2.044c1.506,0.376,0.742-2.157,0.408-2.454c-0.949-0.13-1.57,0.065-2.045,0.41  c-0.568-0.524-0.25-1.931-0.818-2.456c2.586-2.321,3.361-6.455,7.771-6.952c1.316,0.323,2.502,0.776,3.52,1.399  C78.609,18.774,79.434,19.6,80.229,20.456z M61.955,25.176c2.131,0.459,1.541,3.642,3.273,4.499c0,0.271,0,0.545,0,0.818  c-0.984-0.167-0.889,0.748-2.045,0.41c-0.773-0.092-0.902,0.459-1.635,0.408C63.203,29.135,61.076,27.336,61.955,25.176z   M61.549,30.083c-0.684,0-1.363,0-2.047,0c-0.162-1.525,0.328-2.4,1.637-2.454C61.611,28.113,61.602,29.076,61.549,30.083z   M55.004,21.495c-0.361-0.864-1.246-1.209-1.229-2.454c1.637,0.401,2.457,0.401,4.092,0c0.078,0.331,0.412,0.408,0.408,0.817  C58.219,21.438,56.678,21.534,55.004,21.495z M52.549,23.949c-0.627,1.69-2.622,2.012-4.089,2.862c-0.464-0.076-0.229-0.41,0-0.408  c-0.062-0.756-1.385-0.252-1.637-0.818C46.412,20.586,52.996,19.426,52.549,23.949z M83.635,75.076  c-1.025-3.143,1.238-4.395,2.453-6.953c1.209,0.971-0.492,2.475-0.408,3.68c-0.441,0.758-0.992,1.41-1.209,2.396  c-0.016,0.021-0.029,0.045-0.045,0.068C83.99,74.363,83.811,74.717,83.635,75.076z M55.08,7.075c-0.027,0.035-0.039,0.062-0.074,0.1  c0.258,0.053,0.564,0.056,0.885,0.045c0.686,0.119,1.365,0.253,2.039,0.404c-0.66,0.301-0.838,1.085-1.693,1.187  c-0.297,1.25,0.416,1.491,0.406,2.454c-0.703,0.161-1.049-0.606-1.227,0c1.404,1.81-2.008,3.385,0,4.908  c-2.979,1.521-7.176,1.823-8.999,4.499c-0.884,1.023-1.29,2.527-2.454,3.271c-2.918-0.84-3.482-5.656-2.604-7.504  c0.084-0.061,0.144-0.146,0.146-0.263c-0.053,0.079-0.101,0.167-0.146,0.262c-0.215,0.151-0.596,0.103-0.668-0.266  c1.918-5.429-4.68-3.837-5.727-6.953c0.682-0.545,2.604,0.149,2.454-1.227C37.36,8,37.309,8.015,37.25,8.022  c3.563-0.946,7.304-1.457,11.164-1.457C50.682,6.565,52.906,6.74,55.08,7.075z M28.014,11.658c0.828,0.27,1.514,0.427,2.448-0.388  c-0.534-0.032-1.171,0.038-1.708,0.009c1.929-0.982,3.939-1.824,6.021-2.513c-1.586,0.821-2.635,2.179-3.491,3.729  c-1.911,0.186-3.4,0.375-4.607-0.085C27.12,12.152,27.563,11.898,28.014,11.658z M26.051,12.769  c0.092,0.197,0.266,0.312,0.733,0.133c-0.435,0.927-1.24,1.486-2.454,1.636c0.304-0.4,0.436-0.716,0.504-0.999  C25.237,13.278,25.639,13.016,26.051,12.769z M21.321,16.074c0.049,0.034,0.096,0.071,0.146,0.101  c-0.097,1.128-1.52,0.934-2.044,1.637c2.743,0.813,2.856-2.451,4.499-0.41c0.168-0.984-0.747-0.889-0.408-2.043  c0.522-0.022,0.566-0.525,1.228-0.409c0.2,2.331,1.526,1.28,2.044,2.862c0.087-0.459,0.454-0.638,0.818-0.817  c0.435-1.525-1.535-0.647-1.227-2.045c0.057-2.262,3.453-1.182,4.908-2.045c0.007,0.676,1.134,0.229,1.227,0.818  c-0.537-0.053-2.959-0.062-1.636,0.409c4.175-0.328,4.11,2.779,6.544,4.909c-0.804-0.123-0.812,0.552-1.229,0.816  c-0.543,0.062-1.233-1.662-1.635-0.407c0.895,0.06,0.879,1.03,0.817,2.045c-2.028-0.667-0.231,0.049-1.228,0.817  c-1.527-0.791-2.703-1.933-4.5-2.455c1.004-0.358,2.358-0.367,2.455-1.635c0.304-1.26-1.125-0.785-0.818-2.045  c-0.6,0.004-3.348-0.154-2.045,0.41c0.336,1.834-1.174,1.826-1.637,2.863c0.6,0.355,1.297,0.613,1.228,1.636  c-0.329-0.216-0.664-0.426-1.228-0.409c-0.515,0.102-0.412,0.814,0,0.818c-0.074,0.691-1.943-0.189-1.637-1.227  c-1.938,0.65-2.891,2.289-4.089,3.681c0.351,1.558,1.907,1.911,3.271,2.454c0.33,0.217,0.666,0.427,1.229,0.408  c-0.296,1.251,0.418,1.49,0.408,2.454c1.395-3.288,2.595-2.441,2.455-7.771c0.348,0.074,0.386-0.16,0.408-0.409  c0.402-0.035,0.972,1.08,2.455,0.817c1.039,0.324,0.221,2.506,1.635,2.455c1.324,0.506,0.312-1.323,1.637-0.819  c1.281,3.818,3.506,5.762,4.09,9.408c-1.25,0.296-1.49-0.418-2.453-0.408c-1.43,0.365-0.699-1.334-0.41-1.637  c0.588-0.229,0.998-0.639,1.228-1.228c-1.542,0.388-2.771,2.538-4.09,0.818c0.338,1.155-0.576,1.06-0.409,2.045  c-0.076,0.348,0.159,0.386,0.409,0.409c0.317,0.091,0.808,0.01,0.817,0.408c0,0.138,0,0.272,0,0.41  c-1.945,1.258-7.017,2.709-7.771,7.362c-1.199,0.026-1.519,0.935-2.044,1.636c-0.867,0.365,0.809,2.861-0.41,3.682  c-0.989-0.512-1.322-1.678-1.637-2.863c-3.719-2.158-10.463,4.661-4.09,6.136c0.137,0,0.273,0,0.41,0  c-0.148-1.297,2.244-1.832,2.452-0.409c-0.606,0.348-0.879,1.028-0.817,2.043c-0.069,0.889,1.451,0.188,2.045,0.41  c-0.115,1.812-0.868,3.379,1.227,3.68c0.318,0.092,0.809,0.012,0.819,0.41c1.606-0.166,1.747-1.797,3.272-2.045  c0.916,0.85,2.641,1.199,5.316,1.227c0.574,2.562,3.68,2.592,5.316,4.092c0,0.68,0,1.361,0,2.045c2.922,0.76,5.078,2.285,7.771,3.27  c-0.385,3.844-2.917,5.537-2.861,9.818c-1.1,0.539-2.176,1.098-3.273,1.635c-0.379,2.689-2.146,5.939-4.5,5.316  c-0.167,0.986,0.748,0.889,0.408,2.047c-4.189,1.184-3.257,3.732-3.928,7.059c-1.065-0.428-2.11-0.893-3.133-1.4  c-1.623-3.189,1.092-9.072,0.112-14.887c-0.763-4.531-7.209-7.143-6.065-12.537c0.729-0.889,1.577-1.658,2.021-2.832  c-2.943-4.334-8.721-5.838-12.94-8.896c0.118-2.275-0.71-3.604-2.022-4.448c0.068,1.146,0.742,1.685,0.811,2.83  c-2.847-2.78-3.883-7.165-4.004-11.327C9.67,28.554,14.706,21.369,21.321,16.074z M29.645,49.717  c0.141,1.755-1.49,1.105-2.453,0.818C27.567,49.82,28.469,49.631,29.645,49.717z M22.283,48.08c1.108-1.787,3.901,0.715,4.909,1.638  C24.965,49.761,24.634,47.909,22.283,48.08z"
    transform="matrix(2.898952489233441, 0, 0, 2.898952489233441, 125.40609871823892, 84.85405048406112)"
    data-uid="o_emick5gh7_8"></path>
  <g id="_TtPUSk26T6muB2aGv_XNY"
    transform="matrix(1.0000000017601467, 0, 0, 1.0000000017601467, 0.0000010853964198531685, -0.0000069773061852629326)"
    data-uid="o_emick5gh7_9">
    <path id="_i5SWwldFHqHQATdtFwD3k"
      d="M64.106,11.872l20.041-9.533l4.318,11.863l-21.48,5.579L64.106,11.872L64.106,11.872z" fill="#083b66"
      transform="matrix(1.8285797834396362, 0, 0, 1.8285797834396362, 34.21205520629883, 193.15907287597656)"
      data-uid="o_emick5gh7_10"></path>
    <path id="_FC1wN54d8b10plC9iV4K5"
      d="M49.73,29.769c3.05,0,5.523-2.473,5.523-5.522c0-0.25-0.019-0.497-0.051-0.738l9.626-3.503l-2.52-6.919  L30.676,24.6l2.519,6.92L45.062,27.2C46.042,28.744,47.767,29.769,49.73,29.769z"
      fill="#083b66"
      transform="matrix(1.8285797834396362, 0, 0, 1.8285797834396362, 34.022769927978516, 193.1509552001953)"
      data-uid="o_emick5gh7_11"></path>
    <path id="_nJMoe4msUrgkadXaZHaen"
      d="M34.39,66.382l5.932,2.158l6.831-18.769v17.745h6.313V49.771l6.83,18.769l5.932-2.158L53.274,30.794  l-2.965,1.079l-2.966-1.079L34.39,66.382L34.39,66.382z"
      fill="#083b66"
      transform="matrix(1.8285797834396362, 0, 0, 1.8285797834396362, 34.65008544921875, 193.43704223632812)"
      data-uid="o_emick5gh7_12"></path>
    <path id="_U1zgDx8hJvBqlBgWw-Bil" d="M34.659,68.719l3.955,1.439L27.819,99.814l-3.954-1.438L34.659,68.719z"
      fill="#083b66"
      transform="matrix(1.8285797834396362, 0, 0, 1.8285797834396362, 35.148006439208984, 192.8419189453125)"
      data-uid="o_emick5gh7_13"></path>
    <path id="_yvj2Q4Qje77SodFNM7esl" d="M62.005,70.158l3.954-1.439l10.793,29.657l-3.953,1.438L62.005,70.158z"
      fill="#083b66"
      transform="matrix(1.8285797834396362, 0, 0, 1.8285797834396362, 34.56715774536133, 192.8419189453125)"
      data-uid="o_emick5gh7_14"></path>
    <path id="_6n8DA-Rpl74PQKs0BcvGE" d="M48.205,69.497h4.208v30.64h-4.208V69.497z" fill="#083b66"
      transform="matrix(1.8285797834396362, 0, 0, 1.8285797834396362, 34.07411193847656, 193.33999633789062)"
      data-uid="o_emick5gh7_15"></path>
    <path id="_8aKD0DxkIyG37DIMKx9z0" d="M85.584,0.136l2.337,0.269l4.678,12.852l-1.616,1.708L85.584,0.136z"
      fill="#083b66"
      transform="matrix(1.8285797834396362, 0, 0, 1.8285797834396362, 33.8974723815918, 193.5133056640625)"
      data-uid="o_emick5gh7_16"></path>
    <path id="_RaQ98xatf92pBBN7voHPh"
      d="M10.638,40.289c-3.057-2.246-3.776-4.223-2.878-7.908l1.349,0.629l19.771-7.196  c0.689,1.978,1.425,3.97,2.159,5.932L11.267,38.94L10.638,40.289L10.638,40.289z"
      fill="#083b66"
      transform="matrix(1.8285797834396362, 0, 0, 1.8285797834396362, 34.46826934814453, 193.18930053710938)"
      data-uid="o_emick5gh7_17"></path>
    <path id="_taERlYDLKMlbgLzFjQYyH"
      d="M40,68.5c-15.7,0-28.5-12.8-28.5-28.5S24.3,11.5,40,11.5S68.5,24.3,68.5,40S55.7,68.5,40,68.5z M40,13.5   c-14.6,0-26.5,11.9-26.5,26.5S25.4,66.5,40,66.5S66.5,54.6,66.5,40S54.6,13.5,40,13.5z"
      fill="#083b66"
      transform="matrix(4.680050373077393, 0, 0, 4.680050373077393, 74.76588439941406, 38.16875457763672)"
      data-uid="o_emick5gh7_18"></path>
  </g>
  <path id="_urgruYn44VqEDw6uN3g3t" fill="#083b66"
    transform="matrix(0.458549083086319, 0, 0, 0.458549083086319, 267.64926303110775, 409.4640440363794)"
    text="Lian's Space" text-anchor="middle" font-size="100" letter-spacing="0" side="left" offset="0.5" dx="0" dy="0"
    space="preserve" href="" font-family="Orbitron" font-scale="contain" x="0" y="0" data-fl-textpath=""
    data-uid="o_emick5gh7_19"
    d="M-274.35 0L-346.35 0L-346.35-72.1L-338.25-72.1L-338.25-8.1L-274.35-8.1L-274.35 0ZM-260.75 0L-268.95 0L-268.95-58L-260.75-58L-260.75 0ZM-268.95-68.8L-268.95-77L-260.75-77L-260.75-68.8L-268.95-68.8ZM-251.64999999999998-58L-204.74999999999997-58Q-199.64999999999998-58 -196.09999999999997-54.45Q-192.54999999999995-50.9 -192.54999999999995-45.9L-192.54999999999995-45.9L-192.54999999999995 0L-239.54999999999995 0Q-244.54999999999995 0 -248.09999999999997-3.55Q-251.64999999999998-7.1 -251.64999999999998-12.1L-251.64999999999998-12.1L-251.64999999999998-33.1L-200.84999999999997-33.1L-200.84999999999997-45.9Q-200.84999999999997-47.5 -201.99999999999997-48.65Q-203.14999999999998-49.8 -204.74999999999997-49.8L-204.74999999999997-49.8L-251.64999999999998-49.8L-251.64999999999998-58ZM-239.54999999999995-8.2L-200.84999999999997-8.2L-200.84999999999997-24.9L-243.44999999999996-24.9L-243.44999999999996-12.1Q-243.44999999999996-10.5 -242.29999999999995-9.35Q-241.14999999999998-8.2 -239.54999999999995-8.2L-239.54999999999995-8.2ZM-183.54999999999995-58L-136.54999999999995-58Q-131.54999999999995-58 -127.99999999999996-54.45Q-124.44999999999996-50.9 -124.44999999999996-45.9L-124.44999999999996-45.9L-124.44999999999996 0L-132.64999999999998 0L-132.64999999999998-45.9Q-132.64999999999998-47.5 -133.79999999999995-48.65Q-134.94999999999996-49.8 -136.54999999999995-49.8L-136.54999999999995-49.8L-171.34999999999997-49.8Q-172.94999999999996-49.8 -174.14999999999995-48.65Q-175.34999999999997-47.5 -175.34999999999997-45.9L-175.34999999999997-45.9L-175.34999999999997 0L-183.54999999999995 0L-183.54999999999995-58ZM-113.44999999999995-72L-105.24999999999996-72L-105.24999999999996-58L-113.44999999999995-58L-113.44999999999995-72ZM-33.04999999999995-45.9L-33.04999999999995-45.9L-33.04999999999995-45.1L-41.349999999999945-45.1L-41.349999999999945-45.9Q-41.349999999999945-47.5 -42.49999999999994-48.65Q-43.64999999999995-49.8 -45.24999999999994-49.8L-45.24999999999994-49.8L-80.04999999999995-49.8Q-81.64999999999995-49.8 -82.79999999999994-48.65Q-83.94999999999995-47.5 -83.94999999999995-45.9L-83.94999999999995-45.9L-83.94999999999995-37Q-83.94999999999995-35.4 -82.79999999999994-34.25Q-81.64999999999995-33.1 -80.04999999999995-33.1L-80.04999999999995-33.1L-45.24999999999994-33.1Q-40.14999999999995-33.1 -36.599999999999945-29.55Q-33.04999999999995-26 -33.04999999999995-21L-33.04999999999995-21L-33.04999999999995-12.1Q-33.04999999999995-7.1 -36.599999999999945-3.55Q-40.14999999999995 0 -45.24999999999994 0L-45.24999999999994 0L-80.04999999999995 0Q-85.04999999999994 0 -88.59999999999995-3.55Q-92.14999999999995-7.1 -92.14999999999995-12.1L-92.14999999999995-12.1L-92.14999999999995-12.9L-83.94999999999995-12.9L-83.94999999999995-12.1Q-83.94999999999995-10.5 -82.79999999999994-9.35Q-81.64999999999995-8.2 -80.04999999999995-8.2L-80.04999999999995-8.2L-45.24999999999994-8.2Q-43.64999999999995-8.2 -42.49999999999994-9.35Q-41.349999999999945-10.5 -41.349999999999945-12.1L-41.349999999999945-12.1L-41.349999999999945-21Q-41.349999999999945-22.6 -42.49999999999994-23.75Q-43.64999999999995-24.9 -45.24999999999994-24.9L-45.24999999999994-24.9L-80.04999999999995-24.9Q-85.04999999999994-24.9 -88.59999999999995-28.45Q-92.14999999999995-32 -92.14999999999995-37L-92.14999999999995-37L-92.14999999999995-45.9Q-92.14999999999995-50.9 -88.59999999999995-54.45Q-85.04999999999994-58 -80.04999999999995-58L-80.04999999999995-58L-45.24999999999994-58Q-40.14999999999995-58 -36.599999999999945-54.45Q-33.04999999999995-50.9 -33.04999999999995-45.9ZM 75.95000000000006-60L 75.95000000000006-60L 75.95000000000006-57.2L 67.85000000000007-57.2L 67.85000000000007-60Q 67.85000000000007-61.6  66.70000000000006-62.75Q 65.55000000000007-63.9  63.95000000000006-63.9L 63.95000000000006-63.9L 15.950000000000067-63.9Q 14.350000000000065-63.9  13.200000000000065-62.75Q 12.050000000000065-61.6  12.050000000000065-60L 12.050000000000065-60L 12.050000000000065-43.9Q 12.050000000000065-42.3  13.200000000000065-41.2Q 14.350000000000065-40.1  15.950000000000067-40.1L 15.950000000000067-40.1L 63.95000000000006-40.1Q 68.95000000000006-40.1  72.45000000000006-36.6Q 75.95000000000006-33.1  75.95000000000006-28.1L 75.95000000000006-28.1L 75.95000000000006-12Q 75.95000000000006-7  72.45000000000006-3.5Q 68.95000000000006 0  63.95000000000006 0L 63.95000000000006 0L 15.950000000000067 0Q 10.950000000000065 0  7.450000000000065-3.5Q 3.950000000000065-7  3.950000000000065-12L 3.950000000000065-12L 3.950000000000065-14.8L 12.050000000000065-14.8L 12.050000000000065-12Q 12.050000000000065-10.4  13.200000000000065-9.25Q 14.350000000000065-8.1  15.950000000000067-8.1L 15.950000000000067-8.1L 63.95000000000006-8.1Q 65.55000000000007-8.1  66.70000000000006-9.25Q 67.85000000000007-10.4  67.85000000000007-12L 67.85000000000007-12L 67.85000000000007-28.1Q 67.85000000000007-29.7  66.70000000000006-30.8Q 65.55000000000007-31.9  63.95000000000006-31.9L 63.95000000000006-31.9L 15.950000000000067-31.9Q 10.950000000000065-31.9  7.450000000000065-35.4Q 3.950000000000065-38.9  3.950000000000065-43.9L 3.950000000000065-43.9L 3.950000000000065-60Q 3.950000000000065-65  7.450000000000065-68.5Q 10.950000000000065-72  15.950000000000067-72L 15.950000000000067-72L 63.95000000000006-72Q 68.95000000000006-72  72.45000000000006-68.5Q 75.95000000000006-65  75.95000000000006-60ZM 86.45000000000007-58L 133.45000000000007-58Q 138.45000000000007-58  142.00000000000006-54.45Q 145.55000000000007-50.9  145.55000000000007-45.9L 145.55000000000007-45.9L 145.55000000000007-12.1Q 145.55000000000007-7.1  142.00000000000006-3.55Q 138.45000000000007 0  133.45000000000007 0L 133.45000000000007 0L 94.65000000000006 0L 94.65000000000006 23L 86.45000000000007 23L 86.45000000000007-58ZM 137.35000000000008-12.1L 137.35000000000008-12.1L 137.35000000000008-45.9Q 137.35000000000008-47.5  136.20000000000007-48.65Q 135.05000000000007-49.8  133.45000000000007-49.8L 133.45000000000007-49.8L 98.65000000000006-49.8Q 97.05000000000007-49.8  95.85000000000007-48.65Q 94.65000000000006-47.5  94.65000000000006-45.9L 94.65000000000006-45.9L 94.65000000000006-12.1Q 94.65000000000006-10.5  95.85000000000007-9.35Q 97.05000000000007-8.2  98.65000000000006-8.2L 98.65000000000006-8.2L 133.45000000000007-8.2Q 135.05000000000007-8.2  136.20000000000007-9.35Q 137.35000000000008-10.5  137.35000000000008-12.1ZM 152.6500000000001-58L 199.5500000000001-58Q 204.6500000000001-58  208.2000000000001-54.45Q 211.7500000000001-50.9  211.7500000000001-45.9L 211.7500000000001-45.9L 211.7500000000001 0L 164.7500000000001 0Q 159.7500000000001 0  156.2000000000001-3.55Q 152.6500000000001-7.1  152.6500000000001-12.1L 152.6500000000001-12.1L 152.6500000000001-33.1L 203.4500000000001-33.1L 203.4500000000001-45.9Q 203.4500000000001-47.5  202.3000000000001-48.65Q 201.1500000000001-49.8  199.5500000000001-49.8L 199.5500000000001-49.8L 152.6500000000001-49.8L 152.6500000000001-58ZM 164.7500000000001-8.2L 203.4500000000001-8.2L 203.4500000000001-24.9L 160.8500000000001-24.9L 160.8500000000001-12.1Q 160.8500000000001-10.5  162.0000000000001-9.35Q 163.1500000000001-8.2  164.7500000000001-8.2L 164.7500000000001-8.2ZM 233.05000000000007-8.2L 233.05000000000007-8.2L 280.05000000000007-8.2L 280.05000000000007 0L 233.05000000000007 0Q 228.05000000000007 0  224.50000000000009-3.55Q 220.95000000000007-7.1  220.95000000000007-12.1L 220.95000000000007-12.1L 220.95000000000007-45.9Q 220.95000000000007-50.9  224.50000000000009-54.45Q 228.05000000000007-58  233.05000000000007-58L 233.05000000000007-58L 279.8500000000001-58L 279.8500000000001-49.8L 233.05000000000007-49.8Q 231.45000000000007-49.8  230.30000000000007-48.65Q 229.1500000000001-47.5  229.1500000000001-45.9L 229.1500000000001-45.9L 229.1500000000001-12.1Q 229.1500000000001-10.5  230.30000000000007-9.35Q 231.45000000000007-8.2  233.05000000000007-8.2ZM 300.05000000000007-58L 334.8500000000001-58Q 339.9500000000001-58  343.50000000000006-54.45Q 347.05000000000007-50.9  347.05000000000007-45.9L 347.05000000000007-45.9L 347.05000000000007-24.9L 296.1500000000001-24.9L 296.1500000000001-12.1Q 296.1500000000001-10.5  297.30000000000007-9.35Q 298.4500000000001-8.2  300.05000000000007-8.2L 300.05000000000007-8.2L 347.05000000000007-8.2L 347.05000000000007 0L 300.05000000000007 0Q 295.05000000000007 0  291.50000000000006-3.55Q 287.9500000000001-7.1  287.9500000000001-12.1L 287.9500000000001-12.1L 287.9500000000001-45.9Q 287.9500000000001-50.9  291.50000000000006-54.45Q 295.05000000000007-58  300.05000000000007-58L 300.05000000000007-58ZM 296.1500000000001-45.9L 296.1500000000001-33.1L 338.75000000000006-33.1L 338.75000000000006-45.9Q 338.75000000000006-47.5  337.6000000000001-48.65Q 336.4500000000001-49.8  334.8500000000001-49.8L 334.8500000000001-49.8L 300.05000000000007-49.8Q 298.4500000000001-49.8  297.30000000000007-48.65Q 296.1500000000001-47.5  296.1500000000001-45.9L 296.1500000000001-45.9Z">
  </path>
</svg>